<?xml version="1.0" encoding="utf-8"?>
<?xml-stylesheet type="text/xsl" href="rss1.xsl"?>
<rss version="2.0" xmlns:atom="http://www.w3.org/2005/Atom" xmlns:content="http://purl.org/rss/1.0/modules/content/" xmlns:dc="http://purl.org/dc/elements/1.1/" xmlns:media="http://search.yahoo.com/mrss/">
<channel>
 <title>Getty</title>
 <link>http://www.gettyimg.com/</link>
 <atom:link href="http://www.gettyimg.com/" rel="self" type="application/rss+xml" />

 
                <item>
                <title><![CDATA[【Apple Music】WEB-RiP - Rihanna - Cheers (Drink to That) (1080p)]]></title>
                <link><![CDATA[https://sharemania.us/threads/rihanna-cheers-drink-to-that-1080p.222952/]]></link>
                <description><![CDATA[<article>
<blockquote class="messageText SelectQuoteContainer ugc baseHtml">
<img src="https://i.imgur.com/owg39Qj.jpg" class="bbCodeImage LbImage" alt="[​IMG]" data-url="https://i.imgur.com/owg39Qj.jpg" style=""><br>
<br>
<div class="bbCodeBlock bbCodeCode">
<div class="type">Code:</div>
<pre>General
Complete name                  : C:\Users\asus\Desktop\Rihanna - Cheers (Drink to That).mp4
Format                         : MPEG-4
Format profile                 : Base Media
Codec ID                       : isom (isom/iso2/avc1/mp41)
File size                      : 331 MiB
Duration                       : 4 min 40 s
Overall bit rate               : 9 899 kb/s
Frame rate                     : 23.976 FPS
Movie name                     : Cheers (Drink to That)
Performer                      : Rihanna
Genre                          : Pop
ContentType                    : Music Video
Recorded date                  : 2011-01-01 08:00:00 UTC
Writing application            : Lavf57.29.101
Copyright                      : ℗ 2011 The Island Def Jam Music Group

Video
ID                             : 1
Format                         : AVC
Format/Info                    : Advanced Video Codec
Format profile                 : High@L4
Format settings                : CABAC / 4 Ref Frames
Format settings, CABAC         : Yes
Format settings, Reference fra : 4 frames
Codec ID                       : avc1
Codec ID/Info                  : Advanced Video Coding
Duration                       : 4 min 40 s
Bit rate                       : 9 650 kb/s
Width                          : 1 920 pixels
Height                         : 1 056 pixels
Display aspect ratio           : 16:9
Frame rate mode                : Constant
Frame rate                     : 23.976 (24000/1001) FPS
Color space                    : YUV
Chroma subsampling             : 4:2:0
Bit depth                      : 8 bits
Scan type                      : Progressive
Bits/(Pixel*Frame)             : 0.199
Stream size                    : 323 MiB (97%)
Language                       : English
Color range                    : Limited
Color primaries                : BT.709
Transfer characteristics       : BT.709
Matrix coefficients            : BT.709
Codec configuration box        : avcC

Audio
ID                             : 2
Format                         : AAC LC
Format/Info                    : Advanced Audio Codec Low Complexity
Codec ID                       : mp4a-40-2
Duration                       : 4 min 40 s
Bit rate mode                  : Constant
Bit rate                       : 246 kb/s
Channel(s)                     : 2 channels
Channel layout                 : L R
Sampling rate                  : 48.0 kHz
Frame rate                     : 46.875 FPS (1024 SPF)
Compression mode               : Lossy
Stream size                    : 8.23 MiB (2%)
Default                        : Yes
Alternate group                : 1

</pre>
</div>
<div class="bbCodeBlock bbCodeVfcHH HiddenContent">
<div class="attribution type">Hidden Content:</div>
<blockquote>You must either reply or click 'Like' to see the hidden information contained here.</blockquote>
</div>
<div class="messageTextEndMarker">&nbsp;</div>
</blockquote>
</article>]]></description>
                <author><![CDATA[vitalya3]]></author>
                </item>

                
                <item>
                <title><![CDATA[【Requests】[REQ AUD] - Taylor Swift 16bit]]></title>
                <link><![CDATA[https://sharemania.us/threads/taylor-swift-16bit.222951/]]></link>
                <description><![CDATA[<article>
<blockquote class="messageText SelectQuoteContainer ugc baseHtml">
<a href="https://www.qobuz.com/us-en/album/reputation-taylor-swift/0084393003314" target="_blank" class="externalLink" rel="nofollow">https://www.qobuz.com/us-en/album/reputation-taylor-swift/0084393003314</a><br>
<br>
<a href="https://www.qobuz.com/us-en/album/folklore-deluxe-version-explicit-taylor-swift/sfhlhf2smbisb" target="_blank" class="externalLink" rel="nofollow">https://www.qobuz.com/us-en/album/folklore-deluxe-version-explicit-taylor-swift/sfhlhf2smbisb</a><br>
<br>
<a href="https://www.qobuz.com/us-en/album/red-taylors-version-taylor-swift/ls3cjztbgke4a" target="_blank" class="externalLink" rel="nofollow">https://www.qobuz.com/us-en/album/red-taylors-version-taylor-swift/ls3cjztbgke4a</a><br>
<br>
<a href="https://www.qobuz.com/us-en/album/fearless-taylors-version-taylor-swift/izr612y488olc" target="_blank" class="externalLink" rel="nofollow">https://www.qobuz.com/us-en/album/fearless-taylors-version-taylor-swift/izr612y488olc</a><br>
<br>
<a href="https://www.qobuz.com/us-en/album/midnights-taylor-swift/h4zfkn6dvjh9a" target="_blank" class="externalLink" rel="nofollow">https://www.qobuz.com/us-en/album/midnights-taylor-swift/h4zfkn6dvjh9a</a><br>
<br>
<a href="https://www.qobuz.com/us-en/album/lover-taylor-swift/h1r19zw2l2uxb" target="_blank" class="externalLink" rel="nofollow">https://www.qobuz.com/us-en/album/lover-taylor-swift/h1r19zw2l2uxb</a><br>
<br>
need flac 16bit version to save storage please guy…thank you so much..<br>
I want the whole Taylor’s discography 16bit version but It’s too much to ask…<br>
<br>
please guy…
<div class="messageTextEndMarker">&nbsp;</div>
</blockquote>
</article>]]></description>
                <author><![CDATA[Min Phyoaung]]></author>
                </item>

                
                <item>
                <title><![CDATA[【Apple Music】WEB-RiP - Kendrick Lamar - Loyalty. (feat. Rihanna) (1080p)]]></title>
                <link><![CDATA[https://sharemania.us/threads/kendrick-lamar-loyalty-feat-rihanna-1080p.222953/]]></link>
                <description><![CDATA[<article>
<blockquote class="messageText SelectQuoteContainer ugc baseHtml">
<img src="https://i.imgur.com/ldUF12M.jpg" class="bbCodeImage LbImage" alt="[​IMG]" data-url="https://i.imgur.com/ldUF12M.jpg" style=""><br>
<br>
<div class="bbCodeBlock bbCodeCode">
<div class="type">Code:</div>
<pre>General
Complete name                  : C:\Users\asus\Desktop\Kendrick Lamar - Loyalty. (feat. Rihanna).mp4
Format                         : MPEG-4
Format profile                 : Base Media
Codec ID                       : isom (isom/iso2/avc1/mp41)
File size                      : 197 MiB
Duration                       : 4 min 0 s
Overall bit rate               : 6 877 kb/s
Frame rate                     : 23.976 FPS
Movie name                     : Loyalty. (feat. Rihanna)
Performer                      : Kendrick Lamar
Genre                          : Hip-Hop/Rap
ContentType                    : Music Video
Recorded date                  : 2017-07-30 07:00:00 UTC
Writing application            : Lavf57.29.101
Copyright                      : ℗ 2017 Aftermath/Interscope (Top Dawg Entertainment)

Video
ID                             : 1
Format                         : AVC
Format/Info                    : Advanced Video Codec
Format profile                 : High@L4
Format settings                : CABAC / 5 Ref Frames
Format settings, CABAC         : Yes
Format settings, Reference fra : 5 frames
Codec ID                       : avc1
Codec ID/Info                  : Advanced Video Coding
Duration                       : 4 min 0 s
Bit rate                       : 6 623 kb/s
Width                          : 1 912 pixels
Height                         : 788 pixels
Display aspect ratio           : 2.40:1
Frame rate mode                : Constant
Frame rate                     : 23.976 (24000/1001) FPS
Color space                    : YUV
Chroma subsampling             : 4:2:0
Bit depth                      : 8 bits
Scan type                      : Progressive
Bits/(Pixel*Frame)             : 0.183
Stream size                    : 190 MiB (96%)
Color range                    : Limited
Color primaries                : BT.709
Transfer characteristics       : BT.709
Matrix coefficients            : BT.709
Codec configuration box        : avcC

Audio
ID                             : 2
Format                         : AAC LC
Format/Info                    : Advanced Audio Codec Low Complexity
Codec ID                       : mp4a-40-2
Duration                       : 4 min 0 s
Bit rate mode                  : Constant
Bit rate                       : 250 kb/s
Channel(s)                     : 2 channels
Channel layout                 : L R
Sampling rate                  : 48.0 kHz
Frame rate                     : 46.875 FPS (1024 SPF)
Compression mode               : Lossy
Stream size                    : 7.18 MiB (4%)
Default                        : Yes
Alternate group                : 1

</pre>
</div>
<div class="bbCodeBlock bbCodeVfcHH HiddenContent">
<div class="attribution type">Hidden Content:</div>
<blockquote>You must either reply or click 'Like' to see the hidden information contained here.</blockquote>
</div>
<div class="messageTextEndMarker">&nbsp;</div>
</blockquote>
</article>]]></description>
                <author><![CDATA[vitalya3]]></author>
                </item>

                </channel></rss>